<svg width="159" height="149" viewBox="0 0 159 149" fill="none" xmlns="http://www.w3.org/2000/svg">
<mask id="path-1-outside-1_4_153" maskUnits="userSpaceOnUse" x="0" y="0" width="159" height="105" fill="black">
<rect fill="white" width="159" height="105"/>
<path fill-rule="evenodd" clip-rule="evenodd" d="M3 2L27.0859 102.999L132.392 103L156 4.00679H16.0659L15.5874 2H3ZM18.893 17.1887H140.705L124.971 91.9035H36.1498L18.893 17.1887Z"/>
</mask>
<path fill-rule="evenodd" clip-rule="evenodd" d="M3 2L27.0859 102.999L132.392 103L156 4.00679H16.0659L15.5874 2H3ZM18.893 17.1887H140.705L124.971 91.9035H36.1498L18.893 17.1887Z" fill="#676767"/>
<path d="M27.0859 102.999L25.4323 103.393L25.7436 104.699L27.0859 104.699L27.0859 102.999ZM3 2V0.3H0.846917L1.34637 2.39435L3 2ZM132.392 103L132.392 104.7L133.734 104.7L134.045 103.394L132.392 103ZM156 4.00679L157.654 4.40115L158.153 2.30679H156V4.00679ZM16.0659 4.00679L14.4123 4.40112L14.7237 5.70679H16.0659V4.00679ZM15.5874 2L17.241 1.60567L16.9297 0.3H15.5874V2ZM140.705 17.1887L142.369 17.539L142.801 15.4887H140.705V17.1887ZM18.893 17.1887V15.4887H16.7556L17.2366 17.5713L18.893 17.1887ZM124.971 91.9035V93.6035H126.351L126.635 92.2538L124.971 91.9035ZM36.1498 91.9035L34.4934 92.286L34.7976 93.6035H36.1498V91.9035ZM28.7395 102.605L4.65363 1.60565L1.34637 2.39435L25.4323 103.393L28.7395 102.605ZM132.392 101.3L27.0859 101.299L27.0859 104.699L132.392 104.7L132.392 101.3ZM154.346 3.61243L130.738 102.606L134.045 103.394L157.654 4.40115L154.346 3.61243ZM16.0659 5.70679H156V2.30679H16.0659V5.70679ZM13.9338 2.39433L14.4123 4.40112L17.7196 3.61246L17.241 1.60567L13.9338 2.39433ZM15.5874 0.3H3V3.7H15.5874V0.3ZM140.705 15.4887H18.893V18.8887H140.705V15.4887ZM126.635 92.2538L142.369 17.539L139.042 16.8384L123.308 91.5532L126.635 92.2538ZM36.1498 93.6035H124.971V90.2035H36.1498V93.6035ZM17.2366 17.5713L34.4934 92.286L37.8061 91.5209L20.5494 16.8061L17.2366 17.5713Z" fill="#676767" mask="url(#path-1-outside-1_4_153)"/>
<mask id="path-3-outside-2_4_153" maskUnits="userSpaceOnUse" x="28" y="110" width="39" height="39" fill="black">
<rect fill="white" x="28" y="110" width="39" height="39"/>
<path fill-rule="evenodd" clip-rule="evenodd" d="M47.5 146C56.6127 146 64 138.613 64 129.5C64 120.387 56.6127 113 47.5 113C38.3873 113 31 120.387 31 129.5C31 138.613 38.3873 146 47.5 146ZM47.5 140C53.299 140 58 135.299 58 129.5C58 123.701 53.299 119 47.5 119C41.701 119 37 123.701 37 129.5C37 135.299 41.701 140 47.5 140Z"/>
</mask>
<path fill-rule="evenodd" clip-rule="evenodd" d="M47.5 146C56.6127 146 64 138.613 64 129.5C64 120.387 56.6127 113 47.5 113C38.3873 113 31 120.387 31 129.5C31 138.613 38.3873 146 47.5 146ZM47.5 140C53.299 140 58 135.299 58 129.5C58 123.701 53.299 119 47.5 119C41.701 119 37 123.701 37 129.5C37 135.299 41.701 140 47.5 140Z" fill="#676767"/>
<path d="M61 129.5C61 136.956 54.9558 143 47.5 143V149C58.2696 149 67 140.27 67 129.5H61ZM47.5 116C54.9558 116 61 122.044 61 129.5H67C67 118.73 58.2696 110 47.5 110V116ZM34 129.5C34 122.044 40.0442 116 47.5 116V110C36.7304 110 28 118.73 28 129.5H34ZM47.5 143C40.0442 143 34 136.956 34 129.5H28C28 140.27 36.7304 149 47.5 149V143ZM55 129.5C55 133.642 51.6421 137 47.5 137V143C54.9558 143 61 136.956 61 129.5H55ZM47.5 122C51.6421 122 55 125.358 55 129.5H61C61 122.044 54.9558 116 47.5 116V122ZM40 129.5C40 125.358 43.3579 122 47.5 122V116C40.0442 116 34 122.044 34 129.5H40ZM47.5 137C43.3579 137 40 133.642 40 129.5H34C34 136.956 40.0442 143 47.5 143V137Z" fill="#676767" mask="url(#path-3-outside-2_4_153)"/>
<mask id="path-5-outside-3_4_153" maskUnits="userSpaceOnUse" x="92" y="110" width="39" height="39" fill="black">
<rect fill="white" x="92" y="110" width="39" height="39"/>
<path fill-rule="evenodd" clip-rule="evenodd" d="M111.5 146C120.613 146 128 138.613 128 129.5C128 120.387 120.613 113 111.5 113C102.387 113 95 120.387 95 129.5C95 138.613 102.387 146 111.5 146ZM111.5 140C117.299 140 122 135.299 122 129.5C122 123.701 117.299 119 111.5 119C105.701 119 101 123.701 101 129.5C101 135.299 105.701 140 111.5 140Z"/>
</mask>
<path fill-rule="evenodd" clip-rule="evenodd" d="M111.5 146C120.613 146 128 138.613 128 129.5C128 120.387 120.613 113 111.5 113C102.387 113 95 120.387 95 129.5C95 138.613 102.387 146 111.5 146ZM111.5 140C117.299 140 122 135.299 122 129.5C122 123.701 117.299 119 111.5 119C105.701 119 101 123.701 101 129.5C101 135.299 105.701 140 111.5 140Z" fill="#676767"/>
<path d="M125 129.5C125 136.956 118.956 143 111.5 143V149C122.27 149 131 140.27 131 129.5H125ZM111.5 116C118.956 116 125 122.044 125 129.5H131C131 118.73 122.27 110 111.5 110V116ZM98 129.5C98 122.044 104.044 116 111.5 116V110C100.73 110 92 118.73 92 129.5H98ZM111.5 143C104.044 143 98 136.956 98 129.5H92C92 140.27 100.73 149 111.5 149V143ZM119 129.5C119 133.642 115.642 137 111.5 137V143C118.956 143 125 136.956 125 129.5H119ZM111.5 122C115.642 122 119 125.358 119 129.5H125C125 122.044 118.956 116 111.5 116V122ZM104 129.5C104 125.358 107.358 122 111.5 122V116C104.044 116 98 122.044 98 129.5H104ZM111.5 137C107.358 137 104 133.642 104 129.5H98C98 136.956 104.044 143 111.5 143V137Z" fill="#676767" mask="url(#path-5-outside-3_4_153)"/>
</svg>
