<svg width="153" height="124" viewBox="0 0 153 124" fill="none" xmlns="http://www.w3.org/2000/svg">
<path d="M139.47 0H13.5295C6.06789 0 0 6.05524 0 13.498V94.4498C0 101.893 6.06789 107.947 13.5295 107.947H70.8998V112.833H54.4567C51.367 112.833 48.859 115.338 48.859 118.416C48.859 121.494 51.367 124 54.4567 124H98.1882C101.277 124 103.786 121.494 103.786 118.416C103.786 115.338 101.277 112.833 98.1882 112.833H82.0947V107.947H139.47C146.927 107.947 153 101.892 153 94.4498V13.498C153 6.05524 146.929 0 139.47 0Z" fill="#676767"/>
<path d="M139.47 0H13.5295C6.06789 0 0 6.05524 0 13.498V94.4498C0 101.893 6.06789 107.947 13.5295 107.947H70.8998V112.833H54.4567C51.367 112.833 48.859 115.338 48.859 118.416C48.859 121.494 51.367 124 54.4567 124H98.1882C101.277 124 103.786 121.494 103.786 118.416C103.786 115.338 101.277 112.833 98.1882 112.833H82.0947V107.947H139.47C146.927 107.947 153 101.892 153 94.4498V13.498C153 6.05524 146.929 0 139.47 0Z" stroke="#676767"/>
<rect x="124" width="29" height="29" fill="#676767"/>
<rect x="124" y="79" width="29" height="29" fill="#676767"/>
<rect y="79" width="29" height="29" fill="#676767"/>
<rect width="29" height="29" fill="#676767"/>
</svg>
