<svg width="153" height="146" viewBox="0 0 153 146" fill="none" xmlns="http://www.w3.org/2000/svg">
<path d="M38.421 112.925C42.9604 112.925 46.6539 109.232 46.6539 104.692C46.6539 103.599 46.4349 102.556 46.0468 101.601L63.381 83.8812C64.4082 84.3427 65.5426 84.6054 66.7399 84.6054C67.9039 84.6054 69.0105 84.3596 70.0157 83.9217L78.4755 92.3829C78.1494 93.2678 77.9624 94.2193 77.9624 95.216C77.9624 99.7554 81.6554 103.449 86.1952 103.449C90.7351 103.449 94.4281 99.7559 94.4281 95.216C94.4281 94.0488 94.1805 92.9388 93.7402 91.9318L111.45 74.2217L114.032 76.8039C114.659 77.4307 115.5 77.7672 116.359 77.7672C116.714 77.7672 117.073 77.7094 117.421 77.5905C118.608 77.1854 119.462 76.1399 119.621 74.8956L121.009 64.0495C121.138 63.0392 120.792 62.026 120.072 61.3057C119.352 60.5862 118.342 60.2394 117.328 60.3691L106.482 61.7563C105.238 61.9156 104.192 62.7685 103.787 63.9565C103.382 65.1435 103.687 66.4578 104.574 67.3455L106.798 69.5691L88.9137 87.454C88.0613 87.1542 87.1487 86.9831 86.1952 86.9831C85.0693 86.9831 83.9965 87.211 83.0186 87.6218L74.4982 79.1004C74.7999 78.2451 74.9723 77.3297 74.9723 76.3725C74.9723 71.8331 71.2793 68.1396 66.7394 68.1396C62.1996 68.1396 58.5061 71.8327 58.5061 76.3725C58.5061 77.2945 58.6649 78.1784 58.9459 79.0064L41.3406 97.0036C40.4313 96.6572 39.4502 96.4589 38.4206 96.4589C33.8807 96.4589 30.1872 100.152 30.1872 104.692C30.1877 109.232 33.8812 112.925 38.421 112.925ZM89.729 95.216C89.729 97.1643 88.1435 98.7498 86.1952 98.7498C84.247 98.7498 82.6615 97.1648 82.6615 95.216C82.6615 93.2673 84.2465 91.6823 86.1952 91.6823C88.1435 91.6818 89.729 93.2673 89.729 95.216ZM66.7394 72.8392C68.6877 72.8392 70.2732 74.4242 70.2732 76.373C70.2732 78.3212 68.6882 79.9067 66.7394 79.9067C64.7907 79.9067 63.2052 78.3212 63.2052 76.373C63.2057 74.4242 64.7912 72.8392 66.7394 72.8392ZM38.421 101.158C40.3693 101.158 41.9548 102.744 41.9548 104.692C41.9548 106.64 40.3698 108.226 38.421 108.226C36.4723 108.226 34.8868 106.641 34.8868 104.692C34.8868 102.743 36.4723 101.158 38.421 101.158Z" fill="#676767"/>
<path d="M144.777 0.0581207H8.22348C3.68929 0.0581207 0 3.74741 0 8.2816V136.881C0 141.415 3.68929 145.104 8.22348 145.104H144.777C149.311 145.104 153 141.415 153 136.881V8.2816C153 3.74694 149.311 0.0581207 144.777 0.0581207ZM128.505 12.6673C132.262 12.6673 135.319 15.7241 135.319 19.481C135.319 23.238 132.262 26.2948 128.505 26.2948C124.748 26.2948 121.692 23.238 121.692 19.481C121.692 15.7241 124.748 12.6673 128.505 12.6673ZM105.399 12.6673C109.156 12.6673 112.212 15.7241 112.212 19.481C112.212 23.238 109.156 26.2948 105.399 26.2948C101.642 26.2948 98.585 23.238 98.585 19.481C98.585 15.7241 101.642 12.6673 105.399 12.6673ZM20.8637 15.9567H48.3536C50.3005 15.9567 51.878 17.5342 51.878 19.481C51.878 21.4279 50.3005 23.0054 48.3536 23.0054H20.8637C18.9168 23.0054 17.3393 21.4279 17.3393 19.481C17.3393 17.5342 18.9173 15.9567 20.8637 15.9567ZM139.938 130.855C139.938 131.446 139.457 131.928 138.865 131.928H14.1345C13.5429 131.928 13.0617 131.446 13.0617 130.855V42.2906H76.5H139.938V130.855Z" fill="#676767"/>
</svg>
